ModelForces
version=1
nRows=4
nColumns=75
inDegrees=no

This file contains the forces exerted on a model during a simulation.

A force is a generalized force, meaning that it can be either a force (N) or a torque (Nm).

Units are S.I. units (second, meters, Newtons, ...)
Angles are in degrees.

endheader
time	semimem_r	semiten_r	bifemlh_r	bifemsh_r	sar_r	grac_r	rect_fem_r	vas_med_r	vas_int_r	vas_lat_r	med_gas_r	lat_gas_r	femur_lat_meniscii_r.femur_lat_r.force.X	femur_lat_meniscii_r.femur_lat_r.force.Y	femur_lat_meniscii_r.femur_lat_r.force.Z	femur_lat_meniscii_r.femur_lat_r.torque.X	femur_lat_meniscii_r.femur_lat_r.torque.Y	femur_lat_meniscii_r.femur_lat_r.torque.Z	femur_lat_meniscii_r.meniscus_lat_r.force.X	femur_lat_meniscii_r.meniscus_lat_r.force.Y	femur_lat_meniscii_r.meniscus_lat_r.force.Z	femur_lat_meniscii_r.meniscus_lat_r.torque.X	femur_lat_meniscii_r.meniscus_lat_r.torque.Y	femur_lat_meniscii_r.meniscus_lat_r.torque.Z	femur_med_meniscii_r.femur_med_r.force.X	femur_med_meniscii_r.femur_med_r.force.Y	femur_med_meniscii_r.femur_med_r.force.Z	femur_med_meniscii_r.femur_med_r.torque.X	femur_med_meniscii_r.femur_med_r.torque.Y	femur_med_meniscii_r.femur_med_r.torque.Z	femur_med_meniscii_r.meniscus_med_r.force.X	femur_med_meniscii_r.meniscus_med_r.force.Y	femur_med_meniscii_r.meniscus_med_r.force.Z	femur_med_meniscii_r.meniscus_med_r.torque.X	femur_med_meniscii_r.meniscus_med_r.torque.Y	femur_med_meniscii_r.meniscus_med_r.torque.Z	femur_med_tibia_r.tibia_upper_r.force.X	femur_med_tibia_r.tibia_upper_r.force.Y	femur_med_tibia_r.tibia_upper_r.force.Z	femur_med_tibia_r.tibia_upper_r.torque.X	femur_med_tibia_r.tibia_upper_r.torque.Y	femur_med_tibia_r.tibia_upper_r.torque.Z	femur_med_tibia_r.femur_med_r.force.X	femur_med_tibia_r.femur_med_r.force.Y	femur_med_tibia_r.femur_med_r.force.Z	femur_med_tibia_r.femur_med_r.torque.X	femur_med_tibia_r.femur_med_r.torque.Y	femur_med_tibia_r.femur_med_r.torque.Z	femur_lat_tibia_r.tibia_upper_r.force.X	femur_lat_tibia_r.tibia_upper_r.force.Y	femur_lat_tibia_r.tibia_upper_r.force.Z	femur_lat_tibia_r.tibia_upper_r.torque.X	femur_lat_tibia_r.tibia_upper_r.torque.Y	femur_lat_tibia_r.tibia_upper_r.torque.Z	femur_lat_tibia_r.femur_lat_r.force.X	femur_lat_tibia_r.femur_lat_r.force.Y	femur_lat_tibia_r.femur_lat_r.force.Z	femur_lat_tibia_r.femur_lat_r.torque.X	femur_lat_tibia_r.femur_lat_r.torque.Y	femur_lat_tibia_r.femur_lat_r.torque.Z	aACL_R	pACL_R	aPCL_R	pPCL_R	aMCL_R	mMCL_R	pMCL_R	aLCL_R	mLCL_R	pLCL_R	aPCL_L	pPCL_L	aMCL_L	aLCL_L
      0.11623046	    250.61537436	    189.22173514	    248.82907603	    251.29233235	    105.61198372	    110.20499638	     20.53258640	     41.34273868	     39.50893501	     55.14167339	      0.00000000	      0.00000000	   -123.96309590	     28.19504911	    -11.38701657	     -0.53458800	      1.89983642	     10.00561101	    123.96309590	    -28.19504911	     11.38701657	      0.36636265	      2.79088258	      3.44029791	   -184.85724669	    124.80907958	    -12.84281250	      2.89728015	      9.25696560	     48.89442754	    184.85724669	   -124.80907958	     12.84281250	     -2.87232025	     -3.86257350	      3.17011015	    891.24425363	   -481.16401319	    106.37124595	    -11.98765134	    -19.02784778	     13.92944401	   -891.24425363	    481.16401319	   -106.37124595	     10.91888461	     62.23022739	    190.44874453	      0.00000000	      0.00000000	      0.00000000	      0.00000000	      0.00000000	      0.00000000	      0.00000000	      0.00000000	      0.00000000	      0.00000000	      0.00000000	      0.00000000	      0.00000000	      0.00000000	    543.76170444	    292.43584705	      0.00000000	      0.00000000	      0.00000000	      0.00000000	      0.00000000	      0.00000000	      0.00000000	      0.00000000	      0.00000001	      0.00000000
      0.11720555	    252.83559383	    189.64625565	    249.43818579	    250.89358903	    105.61880234	    110.31200329	     20.54247766	      0.00000000	     25.54084324	     49.44075451	      0.00000000	      0.00000000	   -123.93467849	     30.16256485	    -10.81588060	     -0.58757421	      1.66680993	     10.80158036	    123.93467849	    -30.16256485	     10.81588060	      0.43413738	      2.80650203	      3.43144534	   -187.43715340	    121.30328972	    -13.26177524	      2.83849910	      9.50064764	     47.40823004	    187.43715340	   -121.30328972	     13.26177524	     -2.83061479	     -3.93327302	      3.40420137	    911.90067754	   -489.73459244	    106.04006248	    -12.15249319	    -19.34707234	     14.73753781	   -911.90067754	    489.73459244	   -106.04006248	     11.09921683	     62.49912733	    193.61331534	      0.00000000	      0.00000000	      0.00000000	      0.00000000	      0.00000000	      0.00000000	      0.00000000	      0.00000000	      0.00000000	      0.00000000	      0.00000000	      0.00000000	      0.00000000	      0.00000000	    560.05039620	    302.87678850	      0.00000000	      0.00000000	      0.00000000	      0.00000000	      0.00000000	      0.00000000	      0.00000000	      0.00000000	      0.00000001	      0.00000000
      0.11800704	    254.77740547	    190.10381950	    250.37913455	    251.47953734	    105.75473877	    110.49759156	     20.52438691	      0.00000000	     39.29975501	     52.48571976	      0.00000000	      0.00000000	   -117.35127976	     34.66977199	    -11.33383551	     -0.67885429	      2.03078505	     12.71710675	    117.35127976	    -34.66977199	     11.33383551	      0.52399662	      2.63076009	      3.14578913	   -178.07407293	    132.06472045	    -17.05554149	      3.09265130	     10.82316715	     51.85639227	    178.07407293	   -132.06472045	     17.05554149	     -3.13878930	     -3.80485339	      2.96963751	    878.22104546	   -522.33964629	    114.77371730	    -13.03341936	    -18.91578906	     13.18737772	   -878.22104546	    522.33964629	   -114.77371730	     11.86584879	     65.39603682	    207.28000642	      0.00000000	      0.00000000	      0.00000000	      0.00000000	      0.00000000	      0.00000000	      0.00000000	      0.00000000	      0.00000000	      0.00000000	      0.00000000	      0.00000000	      0.00000000	      0.00000000	    569.79009315	    302.22430187	     42.55263465	      0.00000000	      0.00000000	      0.00000000	      0.00000000	      0.00000000	      0.00000000	      0.00000000	      0.00000001	      0.00000000
      0.11872485	    256.75157344	    190.64838701	    251.80934559	    252.54307426	    105.92784332	    110.74259205	     20.82828419	      6.01051806	     38.78632693	     55.28207694	      0.00000000	      0.00000000	   -115.92295889	     35.05173300	    -11.63546535	     -0.67605475	      2.18201914	     12.87779353	    115.92295889	    -35.05173300	     11.63546535	      0.51471176	      2.59600533	      3.12340539	   -181.69956921	    138.15145059	    -19.32469659	      3.23154848	     11.81404458	     54.26004871	    181.69956921	   -138.15145059	     19.32469659	     -3.31134525	     -3.90398449	      3.03892670	    880.75638931	   -537.53252158	    117.73199681	    -13.40871337	    -18.99778551	     13.18391446	   -880.75638931	    537.53252158	   -117.73199681	     12.20664990	     66.65580033	    213.40238903	      0.00000000	      0.00000000	      0.00000000	      0.00000000	      0.00000000	      0.00000000	      0.00000000	      0.00000000	      0.00000000	      0.00000000	      0.00000000	      0.00000000	      0.00000000	      0.00000000	    579.01382873	    304.57898223	     41.50067813	      0.00000000	      0.00000000	      0.00000000	      0.00000000	      0.00000000	      0.00000000	      0.00000000	      0.00000001	      0.00000000
